<?xml version="1.0" encoding="UTF-8"?>
<!-- Uploaded to: SVG Repo, www.svgrepo.com, Generator: SVG Repo Mixer Tools -->
<svg fill="#000000" width="800px" height="800px" version="1.1" viewBox="144 144 512 512" xmlns="http://www.w3.org/2000/svg">
 <g>
  <path d="m585.37 314.33c-3.6367-2.3789-8.5156-1.3633-10.898 2.2734l-11.523 17.598h-0.003906c-8.4805-32.586-27.227-61.574-53.457-82.68-19.945-16.105-43.441-27.219-68.543-32.422-4.2578-0.87109-8.418 1.8711-9.293 6.1289-0.875 4.2578 1.8672 8.418 6.125 9.293 22.637 4.6914 43.828 14.719 61.809 29.246 23.203 18.672 39.898 44.207 47.703 72.945l-17.574-11.324c-1.7578-1.1328-3.8906-1.5195-5.9297-1.0781-2.043 0.44141-3.8242 1.6758-4.957 3.4297-2.3555 3.6562-1.3047 8.5312 2.3516 10.887l31.449 20.258c5.0273 3.2344 11.715 1.8398 15.031-3.1328l19.988-30.523c2.375-3.6367 1.3594-8.5156-2.2773-10.898z"/>
  <path d="m368.63 565.47c-22.637-4.6914-43.824-14.719-61.809-29.242-23.199-18.672-39.898-44.207-47.703-72.949l17.574 11.324h0.003907c3.6562 2.3555 8.5273 1.3047 10.883-2.3516 2.3594-3.6562 1.3047-8.5312-2.3516-10.887l-31.449-20.258v0.003906c-5.0195-3.2539-11.719-1.8555-15.02 3.1328l-19.996 30.523c-2.3828 3.6367-1.3633 8.5156 2.2773 10.898 3.6367 2.3828 8.5156 1.3633 10.898-2.2734l11.523-17.598v-0.003906c8.4844 32.586 27.227 61.574 53.461 82.684 19.941 16.102 43.441 27.215 68.539 32.418 0.52344 0.10938 1.0586 0.16016 1.5938 0.16016 4.0352-0.003907 7.4141-3.0625 7.8203-7.0781 0.40625-4.0195-2.293-7.6914-6.2461-8.5039z"/>
  <path d="m289.79 183.52c-28.184 0-55.215 11.195-75.145 31.125-19.93 19.93-31.125 46.961-31.125 75.145 0 28.188 11.195 55.219 31.125 75.148 19.93 19.93 46.961 31.125 75.145 31.125 28.188 0 55.219-11.195 75.148-31.125s31.125-46.961 31.125-75.148c-0.03125-28.176-11.238-55.188-31.16-75.109-19.926-19.922-46.938-31.129-75.113-31.16zm7.8711 161.07 0.003906 8.1719c0 4.3477-3.5273 7.8711-7.875 7.8711-4.3477 0-7.8711-3.5234-7.8711-7.8711v-8.207c-10.203-1.6016-19.266-7.4062-24.992-16-2.2969-3.6914-1.1719-8.543 2.5195-10.844 3.6875-2.2969 8.543-1.1719 10.84 2.5195 4.5352 6.1758 11.848 9.6875 19.504 9.3633 11.641 0 21.473-7.3125 21.473-15.969-0.3125-3.125-1.5156-6.0898-3.4688-8.5508-1.9492-2.457-4.5664-4.3008-7.5391-5.3125-3.7305-1.4023-7.6602-2.1953-11.641-2.3516-6.0078-0.27734-11.914-1.6523-17.426-4.0664-5.3789-2.332-9.9844-6.1484-13.281-10.996-3.293-4.8516-5.1445-10.539-5.332-16.402 0.51562-7.7695 3.7305-15.117 9.0898-20.77 5.3555-5.6562 12.52-9.2617 20.254-10.191v-8.1758c0-4.3477 3.5234-7.8711 7.8711-7.8711 4.3477 0 7.875 3.5234 7.875 7.8711v8.2109c9.957 1.5938 18.84 7.1562 24.621 15.418 1.1523 1.7461 1.5625 3.8789 1.1406 5.9258-0.42578 2.0469-1.6445 3.8438-3.3906 4.9883-1.75 1.1484-3.8828 1.5508-5.9297 1.125-2.0469-0.42969-3.8398-1.6523-4.9805-3.4062-4.5859-5.9883-11.797-9.3789-19.336-9.0898-11.641 0-21.473 7.3125-21.473 15.969l0.003906-0.003906c0.23438 2.918 1.2852 5.7109 3.0273 8.0586 1.7461 2.3477 4.1133 4.1641 6.8359 5.2344 3.832 1.5117 7.8945 2.3594 12.016 2.5078 5.7617 0.28125 11.434 1.5547 16.766 3.7695 5.6953 2.25 10.621 6.1055 14.176 11.09 3.5586 4.9883 5.5938 10.898 5.8633 17.02-0.51562 7.7734-3.7305 15.121-9.0859 20.773-5.3594 5.6523-12.523 9.2578-20.254 10.191z"/>
  <path d="m510.21 403.93c-28.184 0-55.215 11.199-75.145 31.129s-31.129 46.961-31.129 75.145c0 28.184 11.199 55.215 31.129 75.145 19.93 19.93 46.961 31.129 75.145 31.129 28.184 0 55.215-11.199 75.145-31.129 19.93-19.93 31.129-46.961 31.129-75.145-0.03125-28.176-11.238-55.188-31.164-75.109-19.922-19.926-46.934-31.133-75.109-31.164zm40.453 157.9c-6.0664 4.418-13.188 7.1562-20.648 7.9414-1.2148 0.11719-2.3828 0.16797-3.5039 0.16797h-0.003906c-5.5625-0.14453-11.051-1.3164-16.188-3.4531-3.5586-1.5078-7.3398-2.4141-11.195-2.6797-5.875 0.03125-11.621 1.7305-16.566 4.8984-3.5742 2.1211-8.1445 1.4492-10.953-1.6133-2.8164-3.0469-3.0742-7.6641-0.60937-11 7.8359-9.6406 12.672-21.363 13.914-33.723h-10.617c-4.3477 0-7.8711-3.5234-7.8711-7.8711s3.5234-7.8711 7.8711-7.8711h7.6367c-0.74219-1.7852-1.5156-3.543-2.3164-5.2266-4.5898-7.4727-6.0664-16.441-4.1211-24.988 2.3125-9.0156 8.1641-16.715 16.227-21.359 8.0664-4.6406 17.66-5.8359 26.617-3.3086 8.957 2.5234 16.516 8.5586 20.965 16.73 2.2305 3.7305 1.0156 8.5625-2.7188 10.797-3.7305 2.2305-8.5664 1.0117-10.797-2.7188-2.3242-4.6211-6.4492-8.082-11.402-9.5664-4.957-1.4883-10.305-0.87109-14.789 1.707-4.4844 2.5742-7.7148 6.8867-8.9258 11.914-1.2383 4.457 0.15234 7.7031 3.168 14.039 1.9219 3.8594 3.5312 7.8672 4.8203 11.98h19.121c4.3477 0 7.8711 3.5234 7.8711 7.8711s-3.5234 7.8711-7.8711 7.8711h-17.117c-0.37891 9.0117-2.6445 17.84-6.6484 25.918 1.8711-0.20703 3.7539-0.28125 5.6367-0.21875 5.4961 0.30469 10.906 1.5195 16.004 3.6016 4.1406 2.0391 8.7734 2.8633 13.363 2.3828 4.5859-0.48047 8.9453-2.25 12.574-5.0977 3.5586-2.5078 8.4688-1.6562 10.977 1.9023 2.5039 3.5547 1.6523 8.4688-1.9023 10.973z"/>
 </g>
</svg>